<svg width="100" height="100" viewBox="0 0 100 100" fill="none" xmlns="http://www.w3.org/2000/svg">
<rect width="100" height="100" rx="50" fill="#EBF7E3"/>
<path d="M63.3843 24.7978C62.1379 23.7869 60.1124 22.9315 57.3079 22.2317C54.5813 21.5318 52.5169 21.1819 51.1147 21.1819C49.7124 21.1819 48.8944 21.1819 48.6607 21.1819C44.454 21.2597 41.4158 22.3483 39.5462 24.4479C37.6765 26.4697 36.7416 28.7637 36.7416 31.3298C36.7416 33.896 37.5596 36.0733 39.1956 37.8618C40.8315 39.5726 42.857 40.9334 45.272 41.9443C47.7649 42.8775 50.4135 43.9662 53.218 45.2104C56.1004 46.4545 58.7491 47.7376 61.1641 49.0596C63.657 50.3038 65.7214 52.17 67.3574 54.6584C68.9933 57.0691 69.8113 60.1018 69.8113 63.7566C69.8113 67.4114 68.5259 70.5219 65.9551 73.088C63.3843 75.6542 60.5019 77.3649 57.3079 78.2203C54.1918 79.0757 50.8031 79.5034 47.1416 79.5034C39.1956 79.5034 33.236 77.7537 29.263 74.2544L29.9641 73.5546C31.5222 75.0321 33.8203 76.2374 36.8585 77.1705C39.9746 78.1037 42.9739 78.5702 45.8563 78.5702C50.4525 78.5702 54.2308 77.326 57.1911 74.8377C60.2293 72.2715 61.7484 69.1222 61.7484 65.3896C61.7484 61.5792 60.6188 58.5465 58.3596 56.2914C56.1005 53.9586 53.3349 52.17 50.063 50.9259C46.869 49.6039 43.636 48.3208 40.3641 47.0766C37.0922 45.7547 34.3267 43.9662 32.0675 41.7111C29.8083 39.3782 28.6787 36.6954 28.6787 33.6627C28.6787 30.63 29.3799 28.1805 30.7821 26.3142C32.1844 24.3701 34.054 23.0093 36.3911 22.2317C40.3641 20.9097 44.3371 20.2488 48.3102 20.2488C55.0098 20.2488 60.2293 21.4929 63.9686 23.9813L63.3843 24.7978Z" fill="#427911"/>
<path d="M71.209 14.1323C64.1198 11.4106 57.4202 10.0498 51.1101 10.0498C44.8779 10.0498 40.009 11.3717 36.5034 14.0156C32.9978 16.6596 31.2449 20.3144 31.2449 24.9801C31.2449 30.6567 34.2052 35.0503 40.1258 38.1607C42.7745 39.4827 45.6569 40.7269 48.773 41.8933C51.967 42.982 55.1611 44.2262 58.3551 45.6259C61.5491 47.0256 64.4704 48.6197 67.1191 50.4083C69.7678 52.1968 71.9101 54.6852 73.5461 57.8734C75.182 60.9839 76 64.9886 76 69.8876C76 74.7089 74.6367 78.8303 71.9101 82.2518C69.1835 85.6733 65.8727 88.0062 61.9775 89.2504C58.1603 90.4168 53.6809 91 48.5393 91C38.9573 91 30.7775 88.6283 24 83.8848L24.5843 82.9516C27.1551 84.9734 30.4659 86.6453 34.5169 87.9673C38.6457 89.2115 42.8524 89.8336 47.1371 89.8336C53.4472 89.8336 58.8225 88.395 63.2629 85.5178C67.7813 82.5628 70.0404 78.247 70.0404 72.5704C70.0404 66.3495 67.0801 61.4893 61.1595 57.99C58.5109 56.4348 55.5895 54.9962 52.3955 53.6743C49.2794 52.3523 46.1244 50.9915 42.9304 49.5918C39.7363 48.1143 36.815 46.4813 34.1663 44.6927C28.2457 40.8046 25.2854 35.2835 25.2854 28.1294C25.2854 22.4528 27.194 17.8649 31.0113 14.3656C34.8285 10.7885 40.5543 9 48.1888 9C55.9011 9 63.7303 10.322 71.6764 12.9659L71.209 14.1323Z" fill="#427911"/>
</svg>
