<svg width="22" height="21" viewBox="0 0 22 21" fill="none" xmlns="http://www.w3.org/2000/svg">
<path fill-rule="evenodd" clip-rule="evenodd" d="M6.63578 3.51514L9.00943 1.94097C9.45316 1.65284 9.9709 1.49948 10.5 1.49948C11.0291 1.49948 11.5468 1.65284 11.9906 1.94097L14.3642 3.51514C13.6716 3.5 12.8995 3.5 12.0387 3.50001H12.0387H8.9613H8.96128C8.10046 3.5 7.32836 3.5 6.63578 3.51514ZM16.2763 3.58331C16.3006 3.59939 16.323 3.61721 16.3434 3.63651C16.3812 3.64117 16.4186 3.64598 16.4556 3.65097C17.6003 3.80493 18.4878 4.1241 19.1817 4.8186C20.0681 5.70413 20.3781 6.90936 20.4802 8.59711C21.0318 8.79592 21.4524 9.28265 21.4967 9.89917L21.497 9.90382C21.4987 9.92973 21.4988 9.98126 21.4988 10.0179L21.4988 10.0196L21.4988 10.025C21.4989 10.0745 21.4989 10.1377 21.4987 10.2016L21.498 10.5V11H20.498V10.5L20.4988 10.1997C20.4989 10.136 20.4989 10.0744 20.4988 10.0269L20.4986 9.96967L20.4985 9.9615C20.4776 9.74108 20.2768 9.52075 19.9636 9.50114C19.9465 9.50021 19.9223 9.50001 19.833 9.50001H17.231C15.6866 9.50001 14.5 10.6534 14.5 12C14.5 13.3466 15.6876 14.5 17.23 14.5H19.833C19.9223 14.5 19.9465 14.4998 19.9636 14.4989C20.2789 14.4791 20.4796 14.2566 20.4987 14.0369L20.4988 14.0216L20.4992 13.9712C20.4994 13.9237 20.4996 13.862 20.4998 13.7984C20.5 13.6713 20.5 13.5385 20.5 13.5V13H21.5L21.5 13.515V13.515V13.5151V13.5152C21.5 13.616 21.5001 14.0467 21.497 14.0962L21.4968 14.0999C21.4536 14.7175 21.0319 15.2041 20.4804 15.4028C20.379 17.0909 20.068 18.296 19.1817 19.1814C18.4878 19.8759 17.6003 20.1951 16.4556 20.349C15.3331 20.5 13.8914 20.5 12.0387 20.5L8.5 20.5L8.5 19.5L12 19.5C13.8996 19.5 15.2742 19.4989 16.3224 19.358C17.3561 19.2189 17.9972 18.9521 18.4743 18.4746C19.0749 17.8748 19.3648 17.0213 19.4718 15.5L17.23 15.5C15.2064 15.5 13.5 13.9674 13.5 12C13.5 10.0326 15.2054 8.50001 17.231 8.50001L19.4716 8.50001C19.364 6.97841 19.0748 6.12518 18.4743 5.52541C17.9972 5.04792 17.3561 4.78109 16.3224 4.64205C15.2742 4.50107 13.8996 4.50001 12 4.50001H9C7.10036 4.50001 5.72582 4.50107 4.67765 4.64205C3.64385 4.78109 3.00249 5.04822 2.5254 5.52571C2.04791 6.0028 1.78108 6.64386 1.64204 7.67765C1.50106 8.72583 1.5 10.1004 1.5 12C1.5 13.8996 1.50106 15.2742 1.64204 16.3224C1.78108 17.3562 2.04833 17.9976 2.52582 18.4747C3.07696 19.0267 3.83239 19.3836 5.04861 19.5024L5.54625 19.551L5.44902 20.5462L4.95139 20.4976C3.56761 20.3624 2.57305 19.9373 1.81818 19.1813C1.12396 18.4874 0.804889 17.6001 0.650962 16.4557C0.499987 15.3331 0.499993 13.8914 0.5 12.0387V11.9613C0.499993 10.1086 0.499987 8.66688 0.650962 7.54436C0.804909 6.39974 1.12404 5.51235 1.81845 4.81845C2.51234 4.12405 3.39973 3.80492 4.54435 3.65097C4.58141 3.64598 4.61881 3.64117 4.65656 3.63651C4.67703 3.61721 4.69942 3.59939 4.72365 3.58331L8.46237 1.10387C9.06877 0.709438 9.77661 0.499481 10.5 0.499481C11.2234 0.499481 11.9312 0.709438 12.5376 1.10387L12.5413 1.10631L16.2763 3.58331ZM9.5 7.50001H4.5V8.50001H9.5V7.50001ZM17 13C17.5523 13 18 12.5523 18 12C18 11.4477 17.5523 11 17 11C16.4477 11 16 11.4477 16 12C16 12.5523 16.4477 13 17 13Z" fill="#37432F"/>
</svg>
