<svg width="25" height="16" viewBox="0 0 25 16" fill="none" xmlns="http://www.w3.org/2000/svg">
<path fill-rule="evenodd" clip-rule="evenodd" d="M14.6182 0.0758514H0.000244141V1.07585H14.6182C14.6433 1.07585 14.6838 1.08814 14.7221 1.12648C14.7605 1.16482 14.7728 1.2053 14.7728 1.23039V3.34854V12.0757L10.2703 12.0757C10.0315 10.8442 8.93048 9.8939 7.63652 9.8939C6.34256 9.8939 5.24158 10.8442 5.00272 12.0757L2.83657 12.0757C2.77097 12.0757 2.68203 11.9845 2.68203 11.9211V6.5H1.68203V11.9211C1.68203 12.5467 2.20384 13.0757 2.83657 13.0757L5.00272 13.0757C5.24158 14.3072 6.34256 15.2575 7.63652 15.2575C8.93048 15.2575 10.0315 14.3072 10.2703 13.0757L14.7728 13.0757H15.7728L15.9117 13.0757C16.1505 14.3072 17.2515 15.2575 18.5455 15.2575C19.8298 15.2575 20.924 14.3212 21.1738 13.1031H23.9C24.1761 13.1031 24.4 12.8792 24.4 12.6031V8.60307C24.4 8.53311 24.3853 8.46393 24.3569 8.4L22.4214 4.04506C22.0898 3.43359 21.5891 3.34858 21.3926 3.34854H15.7728V1.23039C15.7728 0.607056 15.2415 0.0758514 14.6182 0.0758514ZM15.7728 4.34854V12.0757H15.9117C16.1505 10.8442 17.2515 9.8939 18.5455 9.8939C19.849 9.8939 20.9567 10.8583 21.1844 12.1031H23.4V8.70918L21.543 4.44922C21.5039 4.36719 21.4453 4.35547 21.3926 4.34854H15.7728ZM1.09114 4.34854H5.45472V3.34854H1.09114V4.34854ZM5.95473 12.5757C5.95473 11.6635 6.72432 10.8939 7.63652 10.8939C8.54873 10.8939 9.31831 11.6635 9.31831 12.5757C9.31831 13.4879 8.54873 14.2575 7.63652 14.2575C6.72432 14.2575 5.95473 13.4879 5.95473 12.5757ZM18.5455 10.8939C17.6333 10.8939 16.8637 11.6635 16.8637 12.5757C16.8637 13.4879 17.6333 14.2575 18.5455 14.2575C19.4577 14.2575 20.2272 13.4879 20.2272 12.5757C20.2272 11.6635 19.4577 10.8939 18.5455 10.8939Z" fill="#37432F"/>
</svg>
