<svg width="20" height="20" viewBox="0 0 20 20" fill="none" xmlns="http://www.w3.org/2000/svg">
<path fill-rule="evenodd" clip-rule="evenodd" d="M15.6456 0.646447C15.8408 0.451184 16.1574 0.451184 16.3527 0.646447L19.3527 3.64645C19.5479 3.84171 19.5479 4.15829 19.3527 4.35355L10.3527 13.3536C10.2762 13.43 10.1769 13.4797 10.0698 13.495L7.23052 13.9007C6.57064 13.995 6.00498 13.4295 6.09909 12.7696L6.50413 9.92941C6.51941 9.82227 6.56904 9.72297 6.64557 9.64645L15.6456 0.646447ZM7.47057 10.2357L7.08907 12.9107L9.76341 12.5286L18.292 4L15.9991 1.70711L7.47057 10.2357ZM11.3194 1H11.4991C11.7753 1 11.9991 1.22386 11.9991 1.5C11.9991 1.77614 11.7753 2 11.4991 2C5.96631 2 5.56238 2.00596 4.15722 2.47434C3.86309 2.57239 3.48337 2.84708 3.13487 3.20913C2.78495 3.57267 2.54564 3.94154 2.47345 4.15811L2.4688 4.17206C1.99323 5.59875 1.52302 7.00934 1.49999 10.25C1.52302 13.4907 1.99323 14.9012 2.4688 16.3279L2.47345 16.3419C2.54564 16.5585 2.78495 16.9273 3.13487 17.2909C3.48337 17.6529 3.86309 17.9276 4.15722 18.0257C5.46919 18.463 5.91116 18.498 10.4956 18.5C13.5516 18.4555 14.9263 17.9973 16.3144 17.5345L16.341 17.5257C16.5576 17.4535 16.9264 17.2142 17.29 16.8642C17.652 16.5157 17.9267 16.136 18.0248 15.8419C18.4932 14.4367 18.4991 14.0328 18.4991 8.5C18.4991 8.22386 18.723 8 18.9991 8C19.2752 8 19.4991 8.22386 19.4991 8.5V8.67973C19.4992 13.9805 19.4992 14.5809 18.9734 16.1581C18.8012 16.675 18.3945 17.1891 17.9835 17.5847C17.5739 17.9789 17.078 18.3341 16.6572 18.4743L16.6539 18.4754C15.1997 18.9602 13.7196 19.4536 10.5063 19.4999L10.4989 19.5001V19.5C5.95003 19.4981 5.33587 19.4726 3.84099 18.9743C3.32411 18.802 2.81005 18.3954 2.4144 17.9844C2.02019 17.5748 1.66501 17.0788 1.52477 16.6581C1.02623 15.1625 0.523742 13.6446 0.499988 10.2535L0.499939 10.2465L0.499988 10.2465C0.523742 6.85537 1.02623 5.33748 1.52477 3.84189C1.66501 3.42115 2.02019 2.92519 2.4144 2.51564C2.81005 2.10461 3.32411 1.69795 3.84099 1.52566C5.41819 0.999927 6.0186 0.999934 11.3194 1Z" fill="#003300"/>
</svg>
