<svg width="32" height="32" viewBox="0 0 32 32" xmlns="http://www.w3.org/2000/svg">
<path fill-rule="evenodd" clip-rule="evenodd" d="M8.98959 8.98959C10.5837 7.39553 12.7457 6.5 15 6.5C17.2543 6.5 19.4163 7.39553 21.0104 8.98959C22.6045 10.5837 23.5 12.7457 23.5 15C23.5 17.0871 22.7324 19.0951 21.3536 20.6465L25.3536 24.6464C25.5488 24.8417 25.5488 25.1583 25.3536 25.3536C25.1583 25.5488 24.8417 25.5488 24.6464 25.3536L20.6465 21.3536C19.0951 22.7324 17.0871 23.5 15 23.5C12.7457 23.5 10.5837 22.6045 8.98959 21.0104C7.39553 19.4163 6.5 17.2543 6.5 15C6.5 12.7457 7.39553 10.5837 8.98959 8.98959ZM15 7.5C13.0109 7.5 11.1032 8.29018 9.6967 9.6967C8.29018 11.1032 7.5 13.0109 7.5 15C7.5 16.9891 8.29018 18.8968 9.6967 20.3033C11.1032 21.7098 13.0109 22.5 15 22.5C16.9891 22.5 18.8968 21.7098 20.3033 20.3033C21.7098 18.8968 22.5 16.9891 22.5 15C22.5 13.0109 21.7098 11.1032 20.3033 9.6967C18.8968 8.29018 16.9891 7.5 15 7.5Z"/>
</svg>
