<svg width="20" height="21" viewBox="0 0 20 21" fill="none" xmlns="http://www.w3.org/2000/svg">
<path fill-rule="evenodd" clip-rule="evenodd" d="M7.56434 1.93934C7.84564 1.65804 8.22718 1.5 8.625 1.5H11.375C11.7728 1.5 12.1544 1.65804 12.4357 1.93934C12.717 2.22064 12.875 2.60218 12.875 3V4.5H7.125V3C7.125 2.60218 7.28304 2.22064 7.56434 1.93934ZM13.875 3V4.5H19C19.2761 4.5 19.5 4.72386 19.5 5C19.5 5.27614 19.2761 5.5 19 5.5H1C0.723858 5.5 0.5 5.27614 0.5 5C0.5 4.72386 0.723858 4.5 1 4.5H6.125V3C6.125 2.33696 6.38839 1.70107 6.85723 1.23223C7.32607 0.763392 7.96196 0.5 8.625 0.5H11.375C12.038 0.5 12.6739 0.763392 13.1428 1.23223C13.6116 1.70107 13.875 2.33696 13.875 3ZM17.9926 7.56547C18.0399 7.30279 17.8577 7.05282 17.5857 7.00713C17.3136 6.96145 17.0547 7.13736 17.0074 7.40004L15.0075 18.503C14.921 18.9781 14.7505 19.3657 14.5083 19.6269C14.2793 19.8738 13.9635 20.0344 13.5 20.0344H6.5C6.03654 20.0344 5.72077 19.8738 5.49179 19.6269C5.24957 19.3657 5.07909 18.9781 4.99261 18.503L2.99269 7.40004C2.94537 7.13736 2.68647 6.96145 2.41441 7.00713C2.14235 7.05282 1.96016 7.30279 2.00748 7.56547L4.00748 18.6689C4.11373 19.2529 4.33927 19.8315 4.74676 20.2709C5.16754 20.7247 5.75528 21 6.5 20.9999H13.5C14.2447 21 14.8326 20.7247 15.2533 20.2709C15.6608 19.8315 15.8864 19.2529 15.9926 18.6689L17.9926 7.56547Z" fill="#37432F"/>
</svg>
