<svg width="32" height="32" viewBox="0 0 32 32" xmlns="http://www.w3.org/2000/svg">
<path fill-rule="evenodd" clip-rule="evenodd" d="M9.98848 4.64498C10.1845 4.83943 10.1859 5.15601 9.99141 5.35208L7.20009 8.16667H16.9091C22.2099 8.16667 26.5 12.4985 26.5 17.8333C26.5 23.1682 22.2099 27.5 16.9091 27.5C11.6083 27.5 7.31821 23.1682 7.31821 17.8333C7.31821 17.5572 7.54207 17.3333 7.81821 17.3333C8.09435 17.3333 8.31821 17.5572 8.31821 17.8333C8.31821 22.6237 12.1684 26.5 16.9091 26.5C21.6498 26.5 25.5 22.6237 25.5 17.8333C25.5 13.0429 21.6498 9.16667 16.9091 9.16667H7.20009L9.99141 11.9813C10.1859 12.1773 10.1845 12.4939 9.98848 12.6884C9.7924 12.8828 9.47583 12.8815 9.28137 12.6854L5.29584 8.66667L9.28137 4.64792C9.47583 4.45185 9.7924 4.45053 9.98848 4.64498Z"/>
</svg>
